<svg width="1075" height="200" viewBox="0 0 1075 200" fill="none" xmlns="http://www.w3.org/2000/svg">
<path d="M328.45 166.127C326.583 166.127 325.011 165.488 323.734 164.212C322.457 162.936 321.818 161.365 321.818 159.499V71.5757C321.818 68.9247 322.752 66.6665 324.618 64.801C326.485 62.8373 328.744 61.8555 331.397 61.8555H336.26C338.225 61.8555 339.993 62.4446 341.565 63.6228C343.235 64.801 344.463 66.2738 345.249 68.0411L378.701 151.399L412.152 68.0411C412.938 66.2738 414.117 64.801 415.689 63.6228C417.359 62.4446 419.176 61.8555 421.141 61.8555H426.004C428.657 61.8555 430.916 62.8373 432.783 64.801C434.649 66.6665 435.583 68.9247 435.583 71.5757V159.499C435.583 161.365 434.944 162.936 433.667 164.212C432.39 165.488 430.818 166.127 428.951 166.127C427.085 166.127 425.464 165.488 424.088 164.212C422.811 162.936 422.173 161.365 422.173 159.499V75.8467L388.132 159.941C387.346 161.806 386.069 163.328 384.3 164.506C382.63 165.587 380.764 166.127 378.701 166.127C376.637 166.127 374.722 165.587 372.953 164.506C371.283 163.328 370.055 161.806 369.269 159.941L335.228 75.8467V159.499C335.228 161.365 334.541 162.936 333.165 164.212C331.888 165.488 330.316 166.127 328.45 166.127Z" fill="white"/>
<path d="M485.41 166.863C480.007 166.863 475.291 165.586 471.263 163.034C467.333 160.481 464.288 156.995 462.127 152.577C460.063 148.159 459.032 143.299 459.032 137.997V96.1707C459.032 94.3052 459.67 92.7343 460.948 91.4579C462.323 90.1815 463.944 89.5433 465.811 89.5433C467.677 89.5433 469.249 90.1815 470.526 91.4579C471.803 92.7343 472.442 94.3052 472.442 96.1707V136.524C472.442 148.503 477.845 154.492 488.652 154.492C493.564 154.492 497.936 153.215 501.767 150.663C505.697 148.11 509.381 144.673 512.819 140.353V96.1707C512.819 94.3052 513.458 92.7343 514.735 91.4579C516.111 90.1815 517.732 89.5433 519.598 89.5433C521.465 89.5433 523.037 90.1815 524.314 91.4579C525.591 92.7343 526.23 94.3052 526.23 96.1707V159.352C526.23 161.217 525.591 162.837 524.314 164.212C523.037 165.488 521.465 166.127 519.598 166.127C517.732 166.127 516.111 165.488 514.735 164.212C513.458 162.837 512.819 161.217 512.819 159.352V153.314C509.086 157.437 505.058 160.726 500.736 163.181C496.413 165.636 491.304 166.863 485.41 166.863Z" fill="white"/>
<path d="M556.347 166.127C554.48 166.127 552.908 165.488 551.631 164.212C550.354 162.936 549.716 161.365 549.716 159.499V63.9174C549.716 62.0519 550.354 60.4809 551.631 59.2046C552.908 57.83 554.48 57.1427 556.347 57.1427C558.312 57.1427 559.933 57.7809 561.21 59.0573C562.487 60.3337 563.126 61.9537 563.126 63.9174V159.499C563.126 161.365 562.438 162.936 561.062 164.212C559.785 165.488 558.213 166.127 556.347 166.127Z" fill="white"/>
<path d="M612.496 166.863C598.152 166.863 590.981 160.383 590.981 147.423V101.767H580.518C579.732 101.767 579.044 101.522 578.455 101.031C577.964 100.442 577.718 99.7544 577.718 98.9689C577.718 97.9871 578.16 97.1525 579.044 96.4652L599.086 76.8776C599.97 75.994 600.805 75.5521 601.591 75.5521C602.377 75.5521 603.015 75.8467 603.507 76.4358C604.096 77.0249 604.391 77.7122 604.391 78.4976V90.2797H621.043C622.713 90.2797 624.088 90.8197 625.169 91.8997C626.25 92.9797 626.79 94.3543 626.79 96.0234C626.79 97.5943 626.25 98.9689 625.169 100.147C624.088 101.227 622.713 101.767 621.043 101.767H604.391V146.244C604.391 150.073 605.275 152.528 607.043 153.608C608.91 154.59 611.219 155.081 613.969 155.081C615.934 155.081 617.899 154.786 619.864 154.197C620.257 154.099 620.65 154.001 621.043 153.903C621.534 153.804 622.123 153.755 622.811 153.755C624.187 153.755 625.415 154.295 626.495 155.375C627.576 156.357 628.116 157.585 628.116 159.057C628.116 161.316 626.986 163.034 624.727 164.212C620.895 165.979 616.818 166.863 612.496 166.863Z" fill="white"/>
<path d="M718.704 166.127C716.739 166.127 714.971 165.587 713.399 164.506C711.925 163.328 710.795 161.659 710.009 159.499L681.126 70.8393C680.831 69.7593 680.684 68.9247 680.684 68.3356C680.586 66.4701 681.126 64.9483 682.305 63.7701C683.582 62.4937 685.203 61.8555 687.168 61.8555C688.74 61.8555 690.115 62.3464 691.294 63.3283C692.473 64.3101 693.308 65.5865 693.799 67.1574L718.556 148.453L743.461 67.452C743.952 65.7829 744.885 64.4574 746.261 63.4755C747.734 62.3955 749.355 61.8555 751.124 61.8555C752.892 61.8555 754.464 62.3955 755.839 63.4755C757.313 64.4574 758.295 65.7829 758.787 67.452L783.691 148.453L808.448 67.1574C808.939 65.5865 809.774 64.3101 810.953 63.3283C812.132 62.3464 813.507 61.8555 815.079 61.8555C817.044 61.8555 818.616 62.4937 819.795 63.7701C821.072 64.9483 821.662 66.4701 821.563 68.3356C821.563 68.9247 821.416 69.7593 821.121 70.8393L792.238 159.499C791.452 161.659 790.273 163.328 788.701 164.506C787.228 165.587 785.509 166.127 783.544 166.127C781.579 166.127 779.761 165.537 778.091 164.359C776.519 163.083 775.439 161.463 774.849 159.499L751.124 84.3887L727.398 159.499C726.809 161.463 725.679 163.083 724.009 164.359C722.437 165.537 720.669 166.127 718.704 166.127Z" fill="white"/>
<path d="M863.83 166.863C856.265 166.863 849.634 165.243 843.936 162.003C838.238 158.763 833.817 154.197 830.673 148.306C827.628 142.317 826.105 135.493 826.105 127.835C826.105 120.177 827.628 113.402 830.673 107.511C833.817 101.522 838.238 96.9071 843.936 93.667C849.634 90.4269 856.265 88.8069 863.83 88.8069C871.297 88.8069 877.879 90.4269 883.577 93.667C889.275 96.9071 893.696 101.522 896.839 107.511C899.983 113.402 901.555 120.177 901.555 127.835C901.555 135.493 899.983 142.317 896.839 148.306C893.696 154.197 889.275 158.763 883.577 162.003C877.879 165.243 871.297 166.863 863.83 166.863ZM863.83 154.639C867.858 154.639 871.689 153.706 875.324 151.841C879.058 149.975 882.103 147.03 884.461 143.004C886.917 138.979 888.145 133.873 888.145 127.688C888.145 121.6 886.917 116.544 884.461 112.518C882.103 108.493 879.058 105.596 875.324 103.829C871.689 101.964 867.858 101.031 863.83 101.031C859.704 101.031 855.774 101.964 852.041 103.829C848.406 105.596 845.41 108.493 843.052 112.518C840.694 116.544 839.515 121.6 839.515 127.688C839.515 133.873 840.694 138.979 843.052 143.004C845.41 147.03 848.406 149.975 852.041 151.841C855.774 153.706 859.704 154.639 863.83 154.639Z" fill="white"/>
<path d="M927.108 166.127C925.241 166.127 923.669 165.488 922.392 164.212C921.115 162.936 920.476 161.365 920.476 159.499V96.318C920.476 94.4525 921.115 92.8815 922.392 91.6051C923.669 90.2306 925.241 89.5433 927.108 89.5433C928.974 89.5433 930.546 90.2306 931.823 91.6051C933.199 92.8815 933.886 94.4525 933.886 96.318V102.651C940.763 93.4215 948.475 88.8069 957.022 88.8069H957.759C959.626 88.8069 961.148 89.4451 962.327 90.7215C963.605 91.9979 964.243 93.5688 964.243 95.4343C964.243 97.2998 963.605 98.8216 962.327 99.9998C961.05 101.178 959.429 101.767 957.464 101.767H956.728C952.012 101.767 947.689 102.945 943.76 105.302C939.83 107.56 936.539 110.702 933.886 114.727V159.499C933.886 161.365 933.199 162.936 931.823 164.212C930.546 165.488 928.974 166.127 927.108 166.127Z" fill="white"/>
<path d="M983.667 166.127C981.801 166.127 980.229 165.488 978.952 164.212C977.675 162.936 977.036 161.365 977.036 159.499V63.9174C977.036 62.0519 977.675 60.4809 978.952 59.2046C980.229 57.83 981.801 57.1427 983.667 57.1427C985.534 57.1427 987.106 57.83 988.383 59.2046C989.758 60.4809 990.446 62.0519 990.446 63.9174V124.153L1025.52 91.7524C1026.99 90.476 1028.47 89.8378 1029.94 89.8378C1032.2 89.8378 1033.82 90.476 1034.8 91.7524C1035.88 93.0288 1036.42 94.5507 1036.42 96.318C1036.42 97.9871 1035.59 99.6562 1033.92 101.325L1012.7 120.324L1039.37 155.67C1040.35 156.946 1040.84 158.272 1040.84 159.646C1040.84 161.61 1040.21 163.181 1038.93 164.359C1037.65 165.537 1036.03 166.127 1034.07 166.127C1033.08 166.127 1032.1 165.881 1031.12 165.39C1030.14 164.899 1029.3 164.212 1028.61 163.328L1003.27 128.866L990.446 140.501V159.499C990.446 161.365 989.758 162.936 988.383 164.212C987.106 165.488 985.534 166.127 983.667 166.127Z" fill="white"/>
<path d="M655.164 166.127C653.298 166.127 651.726 165.488 650.448 164.212C649.171 162.936 648.533 161.365 648.533 159.499V99.2507C648.533 97.3852 649.171 95.8143 650.448 94.5379C651.726 93.1633 653.298 92.476 655.164 92.476C657.129 92.476 658.75 93.1142 660.027 94.3906C661.304 95.667 661.943 97.287 661.943 99.2507V159.499C661.943 161.365 661.255 162.936 659.88 164.212C658.603 165.488 657.031 166.127 655.164 166.127Z" fill="white"/>
<path d="M213.764 76.8614L255.197 87.9349L244.086 129.294C234.414 165.302 197.372 186.687 161.353 177.06L119.92 165.987L131.03 124.628C140.703 88.6203 177.744 67.2346 213.764 76.8614Z" fill="#6498F2" stroke="white" stroke-width="9.00116"/>
<path d="M129.88 124.628L140.991 165.987L99.558 177.06C63.5383 186.687 26.4971 165.302 16.8242 129.294L5.71364 87.9349L47.1465 76.8614C83.1663 67.2346 120.207 88.6203 129.88 124.628Z" fill="#47CDEA" stroke="white" stroke-width="9.00116"/>
<path d="M149.264 145.124L131.387 162.99L113.51 145.124C80.1063 111.739 80.1063 57.6131 113.51 24.2289L131.387 6.36288L149.264 24.2289C182.668 57.6131 182.668 111.739 149.264 145.124Z" fill="#908DD5" stroke="white" stroke-width="9.00116"/>
<path d="M50.0825 151.183L46.2922 107.886L89.6743 104.093C113.603 102 134.698 119.702 136.793 143.63C138.888 167.556 121.176 188.653 97.2458 190.745C73.3003 192.839 52.1784 175.125 50.0825 151.183Z" fill="#F5B842" stroke="white" stroke-width="9.00116"/>
<path d="M176.115 104.093L219.497 107.886L215.707 151.183C213.611 175.125 192.489 192.839 168.544 190.745C144.614 188.653 126.902 167.556 128.996 143.63C131.091 119.702 152.187 102 176.115 104.093Z" fill="#92C43F" stroke="white" stroke-width="9.00116"/>
<path d="M169.391 192.709H91.52C114.881 191.412 123.707 184.149 133.051 170.659C140.838 184.927 149.923 190.115 169.391 192.709Z" fill="white" stroke="white" stroke-width="6.00077"/>
</svg>
