<svg width="240" height="236" viewBox="0 0 240 236" fill="none" xmlns="http://www.w3.org/2000/svg">
<path d="M186.442 67.0416L235.735 79.981L222.752 127.447C215.18 155.134 186.534 171.67 158.771 164.383L109.478 151.443L122.461 103.977C130.033 76.2903 158.679 59.7537 186.442 67.0416Z" fill="#6498F2" stroke="white" stroke-width="6.92969"/>
<path d="M117.54 103.977L130.522 151.443L81.229 164.383C53.4659 171.67 24.8206 155.134 17.248 127.447L4.26554 79.9811L53.5586 67.0416C81.3217 59.7537 109.967 76.2903 117.54 103.977Z" fill="#47CDEA" stroke="white" stroke-width="6.92969"/>
<path d="M146.987 123.567L120.858 149.215L94.729 123.567C68.7823 98.0982 68.7823 56.8046 94.729 31.3356L120.858 5.68768L146.987 31.3356C172.934 56.8046 172.934 98.0982 146.987 123.567Z" fill="#908DD5" stroke="white" stroke-width="6.92969"/>
<path d="M45.2083 136.914L41.7314 97.9049L83.1489 94.348C105.141 92.4594 124.557 108.751 126.516 130.737C128.472 152.681 111.882 172.106 89.8492 173.998C67.3752 175.928 47.2035 159.3 45.2083 136.914Z" fill="#F5B842" stroke="white" stroke-width="6.92969"/>
<path d="M161.345 94.348L202.762 97.9049L199.286 136.914C197.29 159.3 177.119 175.928 154.645 173.998C132.612 172.106 116.022 152.681 117.978 130.737C119.937 108.751 139.353 92.4594 161.345 94.348Z" fill="#92C43F" stroke="white" stroke-width="6.92969"/>
<path d="M155.87 175.203H84.1309C105.652 174.03 113.783 167.457 122.392 155.252C129.565 168.162 137.935 172.856 155.87 175.203Z" fill="white" stroke="white" stroke-width="4.61979"/>
<path d="M8.0997 234.934C7.50867 234.934 7.01096 234.732 6.60658 234.329C6.20219 233.926 6 233.429 6 232.84V205.06C6 204.223 6.29551 203.509 6.88654 202.92C7.47756 202.299 8.19302 201.989 9.03289 201.989H10.5727C11.1948 201.989 11.7547 202.175 12.2524 202.547C12.7812 202.92 13.1701 203.385 13.4189 203.943L24.0107 230.281L34.6025 203.943C34.8514 203.385 35.2247 202.92 35.7224 202.547C36.2512 202.175 36.8266 201.989 37.4488 201.989H38.9886C39.8284 201.989 40.5439 202.299 41.1349 202.92C41.7259 203.509 42.0215 204.223 42.0215 205.06V232.84C42.0215 233.429 41.8193 233.926 41.4149 234.329C41.0105 234.732 40.5128 234.934 39.9218 234.934C39.3307 234.934 38.8175 234.732 38.382 234.329C37.9776 233.926 37.7754 233.429 37.7754 232.84V206.41L26.997 232.98C26.7481 233.569 26.3437 234.05 25.7838 234.422C25.255 234.763 24.664 234.934 24.0107 234.934C23.3575 234.934 22.7509 234.763 22.191 234.422C21.6622 234.05 21.2733 233.569 21.0245 232.98L10.2461 206.41V232.84C10.2461 233.429 10.0283 233.926 9.59281 234.329C9.18843 234.732 8.69072 234.934 8.0997 234.934Z" fill="white"/>
<path d="M57.7983 235.167C56.0875 235.167 54.5944 234.763 53.319 233.957C52.0747 233.15 51.1104 232.049 50.4261 230.653C49.7728 229.257 49.4462 227.721 49.4462 226.046V212.831C49.4462 212.242 49.6484 211.745 50.0528 211.342C50.4883 210.939 51.0015 210.737 51.5926 210.737C52.1836 210.737 52.6813 210.939 53.0857 211.342C53.4901 211.745 53.6923 212.242 53.6923 212.831V225.581C53.6923 229.366 55.4031 231.258 58.8248 231.258C60.3802 231.258 61.7644 230.855 62.9776 230.048C64.2218 229.242 65.3883 228.156 66.4771 226.791V212.831C66.4771 212.242 66.6793 211.745 67.0837 211.342C67.5191 210.939 68.0324 210.737 68.6234 210.737C69.2145 210.737 69.7122 210.939 70.1165 211.342C70.5209 211.745 70.7231 212.242 70.7231 212.831V232.794C70.7231 233.383 70.5209 233.895 70.1165 234.329C69.7122 234.732 69.2145 234.934 68.6234 234.934C68.0324 234.934 67.5191 234.732 67.0837 234.329C66.6793 233.895 66.4771 233.383 66.4771 232.794V230.886C65.295 232.189 64.0197 233.228 62.651 234.003C61.2823 234.779 59.6647 235.167 57.7983 235.167Z" fill="white"/>
<path d="M80.2592 234.934C79.6682 234.934 79.1705 234.732 78.7661 234.329C78.3617 233.926 78.1596 233.429 78.1596 232.84V202.64C78.1596 202.051 78.3617 201.555 78.7661 201.151C79.1705 200.717 79.6682 200.5 80.2592 200.5C80.8814 200.5 81.3946 200.702 81.799 201.105C82.2034 201.508 82.4056 202.02 82.4056 202.64V232.84C82.4056 233.429 82.1879 233.926 81.7524 234.329C81.348 234.732 80.8503 234.934 80.2592 234.934Z" fill="white"/>
<path d="M98.0378 235.167C93.4962 235.167 91.2254 233.119 91.2254 229.024V214.599H87.9126C87.6637 214.599 87.446 214.522 87.2593 214.367C87.1038 214.181 87.026 213.963 87.026 213.715C87.026 213.405 87.166 213.141 87.446 212.924L93.7917 206.735C94.0717 206.456 94.3361 206.317 94.5849 206.317C94.8338 206.317 95.036 206.41 95.1915 206.596C95.3782 206.782 95.4715 206.999 95.4715 207.247V210.97H100.744C101.273 210.97 101.708 211.14 102.051 211.482C102.393 211.823 102.564 212.257 102.564 212.785C102.564 213.281 102.393 213.715 102.051 214.087C101.708 214.429 101.273 214.599 100.744 214.599H95.4715V228.652C95.4715 229.862 95.7514 230.638 96.3114 230.979C96.9024 231.289 97.6334 231.444 98.5044 231.444C99.1265 231.444 99.7486 231.351 100.371 231.165C100.495 231.134 100.62 231.103 100.744 231.072C100.9 231.041 101.086 231.025 101.304 231.025C101.739 231.025 102.128 231.196 102.47 231.537C102.813 231.847 102.984 232.235 102.984 232.7C102.984 233.414 102.626 233.957 101.911 234.329C100.697 234.887 99.4065 235.167 98.0378 235.167Z" fill="white"/>
<path d="M131.667 234.934C131.045 234.934 130.485 234.763 129.987 234.422C129.52 234.05 129.163 233.523 128.914 232.84L119.768 204.828C119.675 204.486 119.628 204.223 119.628 204.036C119.597 203.447 119.768 202.966 120.142 202.594C120.546 202.191 121.059 201.989 121.681 201.989C122.179 201.989 122.615 202.144 122.988 202.454C123.361 202.765 123.626 203.168 123.781 203.664L131.62 229.35L139.506 203.757C139.661 203.23 139.957 202.811 140.392 202.501C140.859 202.16 141.372 201.989 141.932 201.989C142.492 201.989 142.989 202.16 143.425 202.501C143.892 202.811 144.203 203.23 144.358 203.757L152.244 229.35L160.083 203.664C160.238 203.168 160.503 202.765 160.876 202.454C161.249 202.144 161.685 201.989 162.182 201.989C162.804 201.989 163.302 202.191 163.675 202.594C164.08 202.966 164.266 203.447 164.235 204.036C164.235 204.223 164.189 204.486 164.095 204.828L154.95 232.84C154.701 233.523 154.328 234.05 153.83 234.422C153.364 234.763 152.819 234.934 152.197 234.934C151.575 234.934 150.999 234.748 150.471 234.376C149.973 233.972 149.631 233.46 149.444 232.84L141.932 209.109L134.42 232.84C134.233 233.46 133.875 233.972 133.346 234.376C132.849 234.748 132.289 234.934 131.667 234.934Z" fill="white"/>
<path d="M177.618 235.167C175.223 235.167 173.123 234.655 171.319 233.631C169.515 232.607 168.115 231.165 167.12 229.304C166.155 227.411 165.673 225.255 165.673 222.836C165.673 220.416 166.155 218.275 167.12 216.414C168.115 214.522 169.515 213.064 171.319 212.04C173.123 211.016 175.223 210.504 177.618 210.504C179.982 210.504 182.067 211.016 183.871 212.04C185.675 213.064 187.075 214.522 188.07 216.414C189.066 218.275 189.563 220.416 189.563 222.836C189.563 225.255 189.066 227.411 188.07 229.304C187.075 231.165 185.675 232.607 183.871 233.631C182.067 234.655 179.982 235.167 177.618 235.167ZM177.618 231.304C178.894 231.304 180.107 231.01 181.258 230.42C182.44 229.831 183.404 228.9 184.151 227.628C184.928 226.357 185.317 224.743 185.317 222.789C185.317 220.866 184.928 219.268 184.151 217.996C183.404 216.724 182.44 215.809 181.258 215.251C180.107 214.661 178.894 214.367 177.618 214.367C176.312 214.367 175.068 214.661 173.885 215.251C172.735 215.809 171.786 216.724 171.039 217.996C170.293 219.268 169.919 220.866 169.919 222.789C169.919 224.743 170.293 226.357 171.039 227.628C171.786 228.9 172.735 229.831 173.885 230.42C175.068 231.01 176.312 231.304 177.618 231.304Z" fill="white"/>
<path d="M197.654 234.934C197.063 234.934 196.565 234.732 196.161 234.329C195.756 233.926 195.554 233.429 195.554 232.84V212.878C195.554 212.288 195.756 211.792 196.161 211.389C196.565 210.954 197.063 210.737 197.654 210.737C198.245 210.737 198.743 210.954 199.147 211.389C199.583 211.792 199.8 212.288 199.8 212.878V214.879C201.978 211.962 204.42 210.504 207.126 210.504H207.359C207.95 210.504 208.432 210.706 208.806 211.109C209.21 211.513 209.412 212.009 209.412 212.598C209.412 213.188 209.21 213.669 208.806 214.041C208.401 214.413 207.888 214.599 207.266 214.599H207.033C205.539 214.599 204.171 214.972 202.927 215.716C201.682 216.43 200.64 217.422 199.8 218.694V232.84C199.8 233.429 199.583 233.926 199.147 234.329C198.743 234.732 198.245 234.934 197.654 234.934Z" fill="white"/>
<path d="M215.563 234.934C214.972 234.934 214.474 234.732 214.07 234.329C213.665 233.926 213.463 233.429 213.463 232.84V202.64C213.463 202.051 213.665 201.555 214.07 201.151C214.474 200.717 214.972 200.5 215.563 200.5C216.154 200.5 216.651 200.717 217.056 201.151C217.491 201.555 217.709 202.051 217.709 202.64V221.672L228.814 211.435C229.281 211.032 229.747 210.83 230.214 210.83C230.929 210.83 231.443 211.032 231.754 211.435C232.096 211.838 232.267 212.319 232.267 212.878C232.267 213.405 232.002 213.932 231.474 214.46L224.755 220.462L233.2 231.63C233.511 232.033 233.667 232.452 233.667 232.887C233.667 233.507 233.464 234.003 233.06 234.376C232.656 234.748 232.142 234.934 231.52 234.934C231.209 234.934 230.898 234.856 230.587 234.701C230.276 234.546 230.012 234.329 229.794 234.05L221.768 223.161L217.709 226.837V232.84C217.709 233.429 217.491 233.926 217.056 234.329C216.651 234.732 216.154 234.934 215.563 234.934Z" fill="white"/>
<path d="M111.548 234.934C110.957 234.934 110.459 234.732 110.055 234.329C109.65 233.926 109.448 233.429 109.448 232.84V213.804C109.448 213.215 109.65 212.718 110.055 212.315C110.459 211.881 110.957 211.664 111.548 211.664C112.17 211.664 112.683 211.865 113.088 212.269C113.492 212.672 113.694 213.184 113.694 213.804V232.84C113.694 233.429 113.477 233.926 113.041 234.329C112.637 234.732 112.139 234.934 111.548 234.934Z" fill="white"/>
</svg>
