<svg width="256" height="256" viewBox="0 0 256 256" fill="none" xmlns="http://www.w3.org/2000/svg">
<path fill-rule="evenodd" clip-rule="evenodd" d="M19.999 127.999C19.999 68.3523 68.3523 19.999 127.999 19.999C187.645 19.999 235.999 68.3523 235.999 127.999C235.999 133.781 235.729 142.605 233.91 149.99C232.997 153.695 231.801 156.578 230.402 158.478C229.816 159.276 229.239 159.848 228.655 160.246C219.59 151.709 207.79 143.272 194.942 139.493C180.413 135.22 164.536 136.977 150.757 150.757C146.091 155.422 139.103 165.012 138.515 178.732C137.945 192.025 143.431 207.977 160.385 225.81C159.171 228.157 156.105 230.552 150.245 232.577C143.098 235.045 134.274 235.999 127.999 235.999C68.3523 235.999 19.999 187.645 19.999 127.999ZM127.999 7.99902C61.7249 7.99902 7.99902 61.7249 7.99902 127.999C7.99902 194.273 61.7249 247.999 127.999 247.999C135.147 247.999 145.384 246.951 154.162 243.919C162.382 241.079 172.297 235.382 172.987 224.375C173.095 222.656 172.459 220.974 171.241 219.757C154.058 202.573 150.092 188.858 150.504 179.245C150.923 169.458 155.935 162.548 159.241 159.241C169.462 149.021 180.585 147.778 191.556 151.005C202.948 154.356 214.103 162.589 222.757 171.241C224.01 172.495 225.754 173.13 227.521 172.977C233.118 172.488 237.24 169.433 240.067 165.592C242.79 161.892 244.47 157.293 245.562 152.861C247.752 143.971 247.999 133.905 247.999 127.999C247.999 61.7249 194.273 7.99902 127.999 7.99902ZM151.999 88.999C151.999 100.597 161.401 109.999 172.999 109.999C184.597 109.999 193.999 100.597 193.999 88.999C193.999 77.401 184.597 67.999 172.999 67.999C161.401 67.999 151.999 77.401 151.999 88.999ZM139.999 88.999C139.999 107.225 154.773 121.999 172.999 121.999C191.225 121.999 205.999 107.225 205.999 88.999C205.999 70.7737 191.225 55.999 172.999 55.999C154.773 55.999 139.999 70.7737 139.999 88.999ZM88.999 103.999C77.401 103.999 67.999 94.5966 67.999 82.999C67.999 71.401 77.401 61.999 88.999 61.999C100.597 61.999 109.999 71.401 109.999 82.999C109.999 94.5966 100.597 103.999 88.999 103.999ZM88.999 115.999C70.7737 115.999 55.999 101.225 55.999 82.999C55.999 64.7737 70.7737 49.999 88.999 49.999C107.225 49.999 121.999 64.7737 121.999 82.999C121.999 101.225 107.225 115.999 88.999 115.999ZM61.999 166.999C61.999 178.597 71.401 187.999 82.999 187.999C94.5966 187.999 103.999 178.597 103.999 166.999C103.999 155.401 94.5966 145.999 82.999 145.999C71.401 145.999 61.999 155.401 61.999 166.999ZM49.999 166.999C49.999 185.225 64.7737 199.999 82.999 199.999C101.225 199.999 115.999 185.225 115.999 166.999C115.999 148.773 101.225 133.999 82.999 133.999C64.7737 133.999 49.999 148.773 49.999 166.999Z" fill="#01B85C"/>
</svg>
