<svg width="256" height="256" viewBox="0 0 256 256" fill="none" xmlns="http://www.w3.org/2000/svg">
<g clip-path="url(#clip0_319_4748)">
<path fill-rule="evenodd" clip-rule="evenodd" d="M151.157 109.807C151.157 112.923 148.594 115.449 145.432 115.449H128.255C106.129 115.449 88.1753 97.7562 88.1753 75.9519C88.1753 54.1477 106.129 36.4544 128.255 36.4544C149.806 36.4544 168.334 51.1924 168.334 73.5337V80.7932C168.334 90.4319 160.662 98.522 150.585 98.522C146.345 98.522 142.26 97.0686 139.061 94.5709C135.879 96.3671 132.19 97.3935 128.255 97.3935C116.228 97.3935 106.497 87.8044 106.497 75.9519C106.497 64.0994 116.228 54.5104 128.255 54.5104C140.282 54.5104 150.012 64.0994 150.012 75.9519C150.012 79.754 149.011 83.3231 147.254 86.4175C148.239 86.9289 149.387 87.2369 150.585 87.2369C154.043 87.2369 156.883 84.4934 156.883 80.7932V73.5337C156.883 58.499 144.63 47.7394 128.255 47.7394C112.454 47.7394 99.6266 60.3802 99.6266 75.9519C99.6266 91.5236 112.454 104.164 128.255 104.164H145.432C148.594 104.164 151.157 106.691 151.157 109.807ZM117.949 75.9519C117.949 81.5719 122.552 86.1084 128.255 86.1084C133.958 86.1084 138.561 81.5719 138.561 75.9519C138.561 70.332 133.958 65.7954 128.255 65.7954C122.552 65.7954 117.949 70.332 117.949 75.9519Z" fill="#01B85C"/>
<path fill-rule="evenodd" clip-rule="evenodd" d="M131.784 12.4873C129.711 10.8882 126.799 10.8882 124.726 12.4873L21.6639 91.9883C20.2775 93.0578 19.4674 94.6964 19.4674 96.4315V239.585C19.4674 242.701 22.0309 245.227 25.1931 245.227H231.317C234.479 245.227 237.042 242.701 237.042 239.585V96.4315C237.042 94.6964 236.232 93.0578 234.846 91.9883L131.784 12.4873ZM117.667 3.60092C123.886 -1.1964 132.623 -1.1964 138.842 3.60091L241.904 83.1019C246.063 86.3104 248.494 91.2262 248.494 96.4315V239.585C248.494 248.934 240.803 256.512 231.317 256.512H25.1931C15.7065 256.512 8.01611 248.934 8.01611 239.585V96.4315C8.01611 91.2262 10.4462 86.3104 14.6055 83.1019L117.667 3.60092Z" fill="#01B85C"/>
<path fill-rule="evenodd" clip-rule="evenodd" d="M16.6142 130.317L85.3221 169.586L79.5771 179.348L10.8692 140.079L16.6142 130.317Z" fill="#01B85C"/>
<path fill-rule="evenodd" clip-rule="evenodd" d="M245.745 140.018L179.9 179.516L173.946 169.876L239.791 130.379L245.745 140.018Z" fill="#01B85C"/>
<path fill-rule="evenodd" clip-rule="evenodd" d="M116.394 130.091C123.032 123.847 133.478 123.847 140.115 130.091L241.992 225.93C253.201 236.474 245.628 255.102 230.131 255.102H26.3783C10.8822 255.102 3.3088 236.474 14.5178 225.93L116.394 130.091ZM132.208 138.254C129.996 136.173 126.514 136.173 124.301 138.254L22.4248 234.093C18.6885 237.607 21.213 243.817 26.3783 243.817H230.131C235.297 243.817 237.821 237.607 234.085 234.093L132.208 138.254Z" fill="#01B85C"/>
</g>
<defs>
<clipPath id="clip0_319_4748">
<rect width="256" height="256" fill="white"/>
</clipPath>
</defs>
</svg>
